<?xml version="1.0" standalone="no"?>
<!DOCTYPE svg PUBLIC "-//W3C//DTD SVG 20010904//EN"
 "http://www.w3.org/TR/2001/REC-SVG-20010904/DTD/svg10.dtd">
<svg version="1.0" xmlns="http://www.w3.org/2000/svg"
 width="578.000000pt" height="578.000000pt" viewBox="0 0 578.000000 578.000000"
 preserveAspectRatio="xMidYMid meet">
<metadata>
Created by potrace 1.11, written by Peter Selinger 2001-2013
</metadata>
<g transform="translate(0.000000,578.000000) scale(0.100000,-0.100000)"
fill="#000000" stroke="none">
<path d="M4681 5688 c-30 -5 -86 -23 -125 -42 -109 -51 -168 -110 -259 -258
-9 -14 -26 -61 -38 -105 l-22 -78 -1 -1320 c-2 -1296 -2 -1320 -21 -1344 -61
-73 -108 -96 -196 -95 -61 0 -69 3 -137 48 -39 27 -77 55 -83 62 -6 8 -17 14
-24 14 -8 0 -15 4 -17 8 -1 5 -46 39 -98 76 -52 37 -103 74 -113 82 -10 8 -29
20 -43 26 -13 6 -24 15 -24 19 0 5 -12 15 -27 23 -16 8 -41 26 -57 40 -16 14
-32 26 -36 26 -3 0 -15 8 -26 18 -11 9 -27 22 -36 27 -37 23 -322 230 -365
265 -7 6 -17 10 -23 10 -5 0 -10 4 -10 8 0 4 -12 15 -27 24 -16 9 -37 24 -48
32 -20 16 -207 151 -460 333 -179 128 -344 253 -377 285 -15 14 -28 24 -28 22
0 -3 -7 2 -17 11 -9 9 -41 35 -72 58 -31 22 -60 46 -66 52 -5 6 -30 27 -55 46
-25 18 -47 36 -50 39 -3 3 -44 35 -91 72 -79 61 -177 112 -239 123 -14 3 -36
7 -50 10 -60 14 -226 6 -303 -14 -78 -21 -209 -77 -215 -93 -2 -4 -9 -8 -15
-8 -17 0 -71 -45 -137 -111 -92 -94 -156 -218 -177 -344 -5 -27 -8 -763 -8
-1635 1 -1732 -2 -1619 58 -1733 60 -112 179 -214 297 -253 72 -23 72 -23 164
-28 128 -6 261 32 353 101 43 32 122 114 123 126 0 5 6 15 14 23 15 15 55 112
62 153 3 14 7 28 10 33 3 5 6 487 6 1072 0 1049 0 1065 20 1105 35 71 108 117
197 125 29 2 113 -25 139 -46 9 -7 21 -17 27 -21 19 -15 190 -137 225 -161 19
-13 125 -89 235 -169 110 -80 240 -174 288 -209 49 -34 126 -91 173 -125 47
-35 89 -63 94 -63 4 0 10 -4 12 -8 2 -4 44 -37 93 -72 50 -36 92 -68 93 -72 2
-5 8 -8 14 -8 5 0 15 -6 22 -12 8 -7 39 -31 71 -53 60 -43 74 -52 463 -336
139 -101 275 -200 302 -219 26 -19 93 -67 147 -106 122 -89 157 -109 247 -139
107 -35 227 -47 338 -31 183 25 365 144 466 305 29 45 70 133 77 163 2 13 10
46 16 73 12 55 17 3599 5 3690 -20 152 -121 320 -241 401 -109 74 -252 104
-394 82z"/>
</g>
</svg>
