<?xml version="1.0" encoding="utf-8"?>
<!-- Generator: Adobe Illustrator 25.3.1, SVG Export Plug-In . SVG Version: 6.00 Build 0)  -->
<svg version="1.1" id="Layer_1" xmlns="http://www.w3.org/2000/svg" xmlns:xlink="http://www.w3.org/1999/xlink" x="0px" y="0px"
	 viewBox="0 0 779 772" style="enable-background:new 0 0 779 772;" xml:space="preserve">
<style type="text/css">
	.st0{fill:#FFFFFF;}
</style>
<g>
	<path class="st0" d="M389.2,771.9C176.2,775.7,2.5,593.2,2.6,386.4C2.7,176.4,179,0.1,388.8,0c210.1-0.1,386.5,176.4,386.6,386.4
		C775.4,593.2,601.8,775.5,389.2,771.9z M156.6,397.9c71.5,0,142.7,0,214.2,0c0.2-2.2,0.4-3.6,0.4-5.1c0.2-24.3-3.1-48.2-11.6-71
		c-22.5-60.3-71.4-95.9-143.5-83.2c-50.5,8.9-83.3,40.5-100.2,88c-17.1,48.1-12.3,95.9,8.8,141.7c13.7,29.7,37.2,50,68.2,60.3
		c32.9,10.9,66.6,11.4,99.5,0.3c36.7-12.4,61.6-37.1,72-75.3c0.9-3.2,1.5-6.5,2.3-10.5c-2.4,0-4,0-5.6,0c-12,0-24,0.1-35.9-0.1
		c-3.8-0.1-5.6,0.9-6.6,4.9c-2.9,12.2-9.8,22-19.6,29.9c-14.5,11.9-31.4,16.4-49.7,17.1C191.3,497,153.4,458.4,156.6,397.9z
		 M525.2,341.1c-1.4-2-2.6-3.6-3.7-5.2c-21.7-31.7-43.5-63.4-65.2-95.2c-2-3-4.1-4.3-7.8-4.2c-17.5,0.2-35.1,0.1-52.6,0.1
		c-1.6,0-3.2,0.2-5.7,0.4c1.6,2.3,2.6,3.7,3.7,5.2c32.4,44,64.7,88.1,97.2,132.1c2.5,3.4,2.6,5.6,0.1,9
		c-35.2,49.1-70.2,98.3-105.3,147.4c-1.1,1.6-2.1,3.2-3.8,5.8c2.9,0,4.7,0,6.5,0c15.9,0,31.7-0.2,47.6,0.1c4.3,0.1,6.6-1.4,9-4.9
		c25.1-37.6,50.4-75.1,75.6-112.6c1.3-2,2.8-4,4.4-6.3c1.6,2.2,2.6,3.7,3.6,5.3c25.6,38.1,51.3,76.1,76.8,114.2c2,3,4,4.3,7.7,4.3
		c17.5-0.2,35.1-0.1,52.6-0.1c1.6,0,3.2-0.2,5.6-0.4c-1.5-2.2-2.5-3.7-3.6-5.2c-36.3-50.6-72.5-101.2-108.9-151.7
		c-2.5-3.5-2.4-5.6,0.1-9c32.1-42.6,63.9-85.3,95.9-128c1.1-1.5,2.1-3.1,3.8-5.6c-2.9,0-4.5,0-6.2,0c-15.9,0-31.7,0.1-47.6-0.1
		c-4.1-0.1-6.4,1.4-8.7,4.6c-22.5,31.8-45.2,63.5-67.8,95.2C527.8,337.7,526.7,339.2,525.2,341.1z"/>
	<path class="st0" d="M320.3,358.6c-54.5,0-109,0-163.5,0c-4.2-38.2,34.5-78.4,76.6-80.4C283.9,275.9,318.6,314.3,320.3,358.6z"/>
</g>
</svg>
