<?xml version="1.0" encoding="utf-8"?>
<!-- Generator: Adobe Illustrator 25.3.1, SVG Export Plug-In . SVG Version: 6.00 Build 0)  -->
<svg version="1.1" id="Layer_1" xmlns="http://www.w3.org/2000/svg" xmlns:xlink="http://www.w3.org/1999/xlink" x="0px" y="0px"
	 viewBox="0 0 7.9 8.8" style="enable-background:new 0 0 7.9 8.8;" xml:space="preserve">
<style type="text/css">
	.st0{fill-rule:evenodd;clip-rule:evenodd;fill:#FFFFFF;}
	.st1{fill:none;}
</style>
<g>
	<path class="st0" d="M5.6,0.4H1.2V4c0,0.1-0.1,0.2-0.2,0.2C0.9,4.2,0.8,4.1,0.8,4V0.2C0.8,0.1,0.9,0,1,0h4.7c0.1,0,0.1,0,0.1,0.1
		l1.3,1.3c0,0,0.1,0.1,0.1,0.1l0,2.5c0,0.1-0.1,0.2-0.2,0.2C6.8,4.2,6.8,4.1,6.8,4V1.6H6.3c-0.2,0-0.4-0.1-0.5-0.2
		C5.6,1.2,5.6,1,5.6,0.8C5.6,0.8,5.6,0.4,5.6,0.4z M1.2,8.4h5.6v-1c0-0.1,0.1-0.2,0.2-0.2c0.1,0,0.2,0.1,0.2,0.2v1.2
		c0,0.1-0.1,0.2-0.2,0.2H1c-0.1,0-0.2-0.1-0.2-0.2V7.4c0-0.1,0.1-0.2,0.2-0.2c0.1,0,0.2,0.1,0.2,0.2C1.2,7.4,1.2,8.4,1.2,8.4z"/>
	<polygon class="st0" points="2.1,2.2 5.8,2.2 5.8,2.6 2.1,2.6 	"/>
	<polygon class="st0" points="2.1,3 5.8,3 5.8,3.3 2.1,3.3 	"/>
	<polygon class="st0" points="2.1,1.5 4.7,1.5 4.7,1.8 2.1,1.8 	"/>
	<path class="st0" d="M2.1,6.5l0.6-1.6h0.4l0.7,1.6H3.4L3.3,6.1H2.6L2.5,6.5C2.5,6.5,2.1,6.5,2.1,6.5z M3.9,6.5V4.9h0.5
		c0.2,0,0.3,0,0.4,0C5,4.9,5,5,5.1,5c0.1,0.1,0.1,0.2,0.1,0.3c0,0.1,0,0.2-0.1,0.3c0,0.1-0.1,0.1-0.1,0.2C5,5.8,4.9,5.8,4.8,5.9
		c-0.1,0-0.2,0-0.3,0H4.3v0.6C4.3,6.5,3.9,6.5,3.9,6.5z M5.5,6.5V4.9h0.3v1.6H5.5z M1.2,7.5h5.6h0.4h0.6c0.1,0,0.1-0.1,0.1-0.1V4
		c0-0.1-0.1-0.1-0.1-0.1H7.1H6.8H1.2H0.8H0.1C0.1,3.8,0,3.9,0,4v3.4c0,0.1,0.1,0.1,0.1,0.1h0.6H1.2z"/>
	<polygon class="st0" points="2.9,5.2 2.7,5.9 3.2,5.9 	"/>
	<path class="st0" d="M4.3,5.1v0.5h0.2c0.1,0,0.2,0,0.3,0s0.1,0,0.1-0.1c0,0,0-0.1,0-0.1c0-0.1,0-0.1-0.1-0.1c0,0-0.1-0.1-0.1-0.1
		c0,0-0.1,0-0.2,0C4.4,5.1,4.3,5.1,4.3,5.1z"/>
</g>
<rect class="st1" width="8.3" height="8.3"/>
</svg>
