<?xml version="1.0" encoding="utf-8"?>
<!-- Generator: Adobe Illustrator 24.3.0, SVG Export Plug-In . SVG Version: 6.00 Build 0)  -->
<svg version="1.1" id="Layer_1" xmlns="http://www.w3.org/2000/svg" xmlns:xlink="http://www.w3.org/1999/xlink" x="0px" y="0px"
	 viewBox="0 0 24 24" style="enable-background:new 0 0 24 24;" xml:space="preserve">
<style type="text/css">
	.st0{fill:#F7F6FB;}
</style>
<path class="st0" d="M17.8,8.6c0,0-1.9,6.1-2.1,6.6c-0.5-3.8-1-7.6-1.5-11.5c-3.3,0-5.1,2.4-6,4.9l-2.6,6.6c0-0.5-0.4-6.6-0.4-6.6
	C5.1,5.6,2.3,3.7,0,3.7l2.7,16.6c3.5,0,5.3-2.4,6.3-4.9c0,0,2.1-5.4,2.2-5.6c0,0.2,1.5,10.5,1.5,10.5c3.5,0,5.4-2.2,6.4-4.6l4.9-12
	C20.6,3.7,18.7,6.1,17.8,8.6L17.8,8.6z"/>
</svg>
