<?xml version="1.0" encoding="utf-8"?>
<!-- Generator: Adobe Illustrator 24.3.0, SVG Export Plug-In . SVG Version: 6.00 Build 0)  -->
<svg version="1.1" id="Layer_1" xmlns="http://www.w3.org/2000/svg" xmlns:xlink="http://www.w3.org/1999/xlink" x="0px" y="0px"
	 viewBox="0 0 24 24" style="enable-background:new 0 0 24 24;" xml:space="preserve">
<style type="text/css">
	.st0{fill:#F7F6FB;}
</style>
<path class="st0" d="M13.7,7.5c-0.5,0.2-0.7,0.7-0.7,1.8c0,0,0.2-0.2,0.6-0.4c0.3-0.1,0.5-0.2,0.6-0.3c0.4-0.3,0.5-0.7,0.5-1.3
	C14.8,7.3,14.1,7.3,13.7,7.5 M10.9,7.8c-0.4,0.3-0.5,0.9-0.5,0.9l-1.3,5L8.1,9.6C8,9.1,7.8,8.6,7.5,8.2C7.1,7.8,6.3,7.8,6.2,7.8
	c-0.1,0-0.8,0-1.2,0.5C4.7,8.6,4.5,9.1,4.4,9.6l-1.1,4.1l-1.3-5c0,0-0.1-0.5-0.5-0.9C0.9,7.2,0,7.3,0,7.3l2.5,9.3
	c0,0,0.8,0.1,1.2-0.1c0.5-0.3,0.8-0.5,1.1-1.7c0.3-1.1,1.1-4.4,1.2-4.7C6,10,6,9.7,6.2,9.7c0.2,0,0.3,0.3,0.3,0.4
	c0.1,0.2,0.9,3.5,1.2,4.7C8,16,8.3,16.2,8.8,16.5c0.4,0.2,1.2,0.1,1.2,0.1l2.5-9.3C12.5,7.3,11.5,7.2,10.9,7.8 M14.8,8.9
	c0,0-0.2,0.2-0.5,0.4c-0.2,0.1-0.4,0.2-0.7,0.3c-0.4,0.2-0.5,0.4-0.5,0.7v6.3c0,0,0.6,0.1,1-0.1c0.5-0.3,0.6-0.5,0.6-1.7V9.2h0V8.9z
	 M20.9,12L24,7.4c0,0-1.3-0.2-2,0.4c-0.4,0.4-0.9,1.1-0.9,1.1L20,10.5c-0.1,0.1-0.1,0.2-0.2,0.2c-0.1,0-0.2-0.1-0.2-0.2l-1.1-1.7
	c0,0-0.5-0.7-0.9-1.1c-0.7-0.6-2-0.4-2-0.4l3.1,4.6l-3.1,4.6c0,0,1.4,0.2,2-0.4c0.4-0.4,0.8-1,0.8-1l1.1-1.7
	c0.1-0.1,0.1-0.2,0.2-0.2c0.1,0,0.2,0.1,0.2,0.2l1.1,1.7c0,0,0.4,0.6,0.8,1c0.7,0.6,2,0.4,2,0.4L20.9,12z"/>
</svg>
