<?xml version="1.0" encoding="utf-8"?>
<!-- Generator: Adobe Illustrator 24.3.0, SVG Export Plug-In . SVG Version: 6.00 Build 0)  -->
<svg version="1.1" id="Layer_1" xmlns="http://www.w3.org/2000/svg" xmlns:xlink="http://www.w3.org/1999/xlink" x="0px" y="0px"
	 viewBox="0 0 187.5 200" style="enable-background:new 0 0 187.5 200;" xml:space="preserve">
<style type="text/css">
	.st0{fill:none;stroke:#FFFFFF;stroke-width:2;stroke-linecap:round;stroke-linejoin:round;stroke-dasharray:0,7.998;}
	.st1{fill:none;stroke:#FFFFFF;stroke-width:2;stroke-linecap:round;stroke-linejoin:round;stroke-dasharray:0,8.0628;}
	.st2{fill:none;stroke:#FFFFFF;stroke-width:2;stroke-linecap:round;stroke-linejoin:round;stroke-dasharray:0,7.9943;}
	.st3{fill:none;stroke:#FFFFFF;stroke-width:2;stroke-linecap:round;stroke-linejoin:round;stroke-dasharray:0,8.0735;}
	.st4{fill:none;stroke:#FFFFFF;stroke-width:2;stroke-linecap:round;stroke-linejoin:round;stroke-dasharray:0,7.9891;}
	.st5{fill:none;stroke:#FFFFFF;stroke-width:2;stroke-linecap:round;stroke-linejoin:round;stroke-dasharray:0,8.0904;}
	.st6{fill:none;stroke:#FFFFFF;stroke-width:2;stroke-linecap:round;stroke-linejoin:round;stroke-dasharray:0,7.98;}
	.st7{fill:none;stroke:#FFFFFF;stroke-width:2;stroke-linecap:round;stroke-linejoin:round;stroke-dasharray:0,8.1208;}
	.st8{fill:none;stroke:#FFFFFF;stroke-width:2;stroke-linecap:round;stroke-linejoin:round;stroke-dasharray:0,7.9624;}
	.st9{fill:none;stroke:#FFFFFF;stroke-width:2;stroke-linecap:round;stroke-linejoin:round;stroke-dasharray:0,8.1937;}
	.st10{fill:none;stroke:#FFFFFF;stroke-width:2;stroke-linecap:round;stroke-linejoin:round;stroke-dasharray:0,7.9109;}
	.st11{fill:none;stroke:#FFFFFF;stroke-width:2;stroke-linecap:round;stroke-linejoin:round;stroke-dasharray:0,8.5886;}
</style>
<g>
	<g>
		<path class="st0" d="M145.6,5.6c19.8,6.3,37.5,23.9,41.1,43.8c3.7,20.1-6.6,42.5-18.2,60.2c-11.6,17.8-24.6,30.9-39.3,49.1
			c-14.8,18.2-31.1,41.8-47.3,41.3c-16-0.6-31.8-24.8-47.3-42.8c-15.3-18-30.3-29.7-33.7-44.4c-3.6-14.6,4.4-32.1,10.3-50
			c6-18,9.9-36.6,21.3-45.7C43.9,7.8,62.7,8,83.1,5.9C103.7,3.7,125.7-1,145.6,5.6z"/>
	</g>
	<g>
		<path class="st1" d="M140.2,10.3c18.1,5.9,34.4,22,37.6,40.2c3.4,18.4-6.1,38.9-16.7,55.1c-10.6,16.3-22.5,28.3-35.9,44.9
			c-13.5,16.7-28.5,38.3-43.4,37.8c-14.6-0.5-29.2-22.6-43.4-39.3c-14.1-16.3-27.8-27.1-31-40.6c-3.3-13.3,4.1-29.3,9.3-45.7
			c5.4-16.4,9.1-33.6,19.5-41.9C47,12.3,64.2,12.7,83,10.6S122,4.4,140.2,10.3z"/>
	</g>
	<g>
		<path class="st2" d="M134.8,15.1c16.4,5.3,31.2,19.9,34.2,36.5c3.2,16.7-5.5,35.4-15.2,50.1c-9.7,14.9-20.5,25.7-32.7,40.9
			c-12.3,15.2-25.9,34.8-39.4,34.5c-13.4-0.5-26.5-20.6-39.4-35.7c-12.7-15-25.2-24.8-28-36.9c-3-12.1,3.7-26.6,8.6-41.6
			c5-15,8.3-30.5,17.7-38.1c9.6-7.7,25.2-7.4,42.2-9.3C99.9,13.6,118.3,9.7,134.8,15.1z"/>
	</g>
	<g>
		<path class="st3" d="M129.4,20c14.9,4.7,28,17.9,30.8,32.9c2.8,15-5,31.8-13.6,45.1c-8.7,13.4-18.5,23.1-29.4,36.8
			c-11,13.6-23.3,31.3-35.5,31c-12.1-0.5-23.9-18.6-35.5-32.1c-11.5-13.5-22.6-22.3-25.2-33.2c-2.7-10.9,3.3-23.9,7.7-37.4
			c4.5-13.5,7.4-27.5,16-34.2c8.6-7,22.6-6.8,38.1-8.4C98.1,18.5,114.6,15.1,129.4,20z"/>
	</g>
	<g>
		<path class="st4" d="M124.1,24.8c13.2,4.3,25,15.9,27.4,29.2c2.5,13.4-4.4,28.3-12.2,40.1c-7.8,11.8-16.3,20.5-26.1,32.7
			c-9.8,12.2-20.7,27.8-31.5,27.5c-10.7-0.3-21.2-16.4-31.5-28.5C39.9,113.8,30,105.9,27.7,96.2C25.3,86.6,30.6,75,34.5,63
			c3.9-11.9,6.6-24.4,14.2-30.5c7.7-6.2,20.2-6,33.8-7.4C96.2,23.5,110.8,20.4,124.1,24.8z"/>
	</g>
	<g>
		<path class="st5" d="M118.7,29.6c11.5,3.7,21.9,14,23.9,25.6c2.1,11.7-3.8,24.7-10.6,35c-6.8,10.4-14.3,17.9-22.9,28.6
			c-8.6,10.6-18.1,24.3-27.5,24.1c-9.3-0.3-18.5-14.4-27.5-25c-8.9-10.5-17.7-17.3-19.6-25.8c-2.1-8.4,2.6-18.6,6-29.1
			c3.5-10.5,5.7-21.3,12.4-26.7s17.7-5.2,29.5-6.5C94.3,28.4,107.1,25.8,118.7,29.6z"/>
	</g>
	<g>
		<path class="st6" d="M113.3,34.4c9.9,3.2,18.7,11.9,20.5,21.9c1.9,10-3.3,21.2-9.1,30c-5.7,8.9-12.3,15.4-19.6,24.4
			c-7.4,9.1-15.5,20.8-23.5,20.6c-8-0.2-15.9-12.4-23.5-21.4S42.9,95,41.2,87.7c-1.8-7.2,2.3-15.9,5.1-24.9c2.9-9,5-18.2,10.6-22.9
			c5.7-4.6,15.1-4.5,25.3-5.6C92.4,33.4,103.4,31.1,113.3,34.4z"/>
	</g>
	<g>
		<path class="st7" d="M107.9,39.2c8.2,2.6,15.5,9.9,17,18.2c1.6,8.3-2.7,17.7-7.5,25c-4.8,7.4-10.3,12.8-16.3,20.4
			c-6.2,7.5-13,17.3-19.6,17.1c-6.6-0.2-13.2-10.3-19.6-17.8c-6.4-7.4-12.6-12.4-14-18.5C46.3,77.7,49.7,70.5,52,63
			c2.5-7.4,4.2-15.2,8.9-19s12.6-3.7,21.1-4.6C90.6,38.3,99.7,36.5,107.9,39.2z"/>
	</g>
	<g>
		<path class="st8" d="M102.5,44c6.5,2.1,12.4,7.9,13.6,14.5c1.2,6.6-2.3,14.1-6.1,19.9c-3.8,6-8.2,10.3-13.1,16.3
			c-5,6.1-10.4,13.9-15.7,13.7c-5.3-0.2-10.6-8.2-15.7-14.2c-5.1-6-10-9.9-11.2-14.8C53.3,74.7,56,69,57.9,63c2-6,3.3-12.2,7.1-15.2
			c3.8-3,10-2.9,16.9-3.7C88.7,43.4,96,41.8,102.5,44z"/>
	</g>
	<g>
		<path class="st9" d="M97.2,48.8c5,1.6,9.3,6,10.3,10.9c0.9,5-1.7,10.6-4.5,15c-2.9,4.4-6.1,7.7-9.8,12.2
			c-3.7,4.5-7.8,10.4-11.7,10.3C77.5,97,73.6,91,69.7,86.4s-7.5-7.4-8.3-11c-0.9-3.6,1.1-7.9,2.6-12.4c1.5-4.5,2.5-9.1,5.3-11.4
			s7.5-2.3,12.6-2.8C86.7,48.4,92.3,47.2,97.2,48.8z"/>
	</g>
	<g>
		<path class="st10" d="M91.8,53.7c3.3,1,6.2,3.9,6.8,7.2c0.6,3.3-1.1,7-3,9.9c-1.9,2.9-4.1,5.1-6.4,8.1c-2.5,3-5.2,6.9-7.8,6.9
			c-2.6-0.1-5.3-4.1-7.8-7.1c-2.5-2.9-5-5-5.5-7.3s0.7-5.3,1.7-8.2c1-2.9,1.7-6.1,3.5-7.5c1.9-1.6,5-1.5,8.3-1.8
			C84.9,53.3,88.5,52.5,91.8,53.7z"/>
	</g>
	<g>
		<path class="st11" d="M86.4,58.4c1.6,0.6,3,1.9,3.4,3.6c0.3,1.6-0.6,3.5-1.5,4.8c-0.9,1.5-2,2.5-3.2,3.9c-1.2,1.5-2.5,3.4-3.8,3.4
			c-1.4,0-2.6-2-3.8-3.5c-1.2-1.5-2.5-2.4-2.7-3.6c-0.3-1.1,0.3-2.6,0.8-4.1c0.5-1.5,0.8-2.9,1.7-3.7c0.9-0.8,2.5-0.7,4.2-0.9
			C83,58.3,84.8,57.9,86.4,58.4z"/>
	</g>
</g>
</svg>
