<?xml version="1.0" encoding="utf-8"?>
<!-- Generator: Adobe Illustrator 24.3.0, SVG Export Plug-In . SVG Version: 6.00 Build 0)  -->
<svg version="1.1" id="Layer_1" xmlns="http://www.w3.org/2000/svg" xmlns:xlink="http://www.w3.org/1999/xlink" x="0px" y="0px"
	 viewBox="0 0 252.6 289.1" style="enable-background:new 0 0 252.6 289.1;" xml:space="preserve">
<style type="text/css">
	.st0{fill:url(#SVGID_1_);}
	.st1{fill:url(#SVGID_2_);}
	.st2{fill:url(#SVGID_3_);}
</style>
<g>
	<linearGradient id="SVGID_1_" gradientUnits="userSpaceOnUse" x1="5.3066" y1="146.0838" x2="247.7616" y2="146.0838">
		<stop  offset="0.211" style="stop-color:#644A9E"/>
		<stop  offset="0.4026" style="stop-color:#5F62AC"/>
		<stop  offset="0.4207" style="stop-color:#5E6AB1"/>
		<stop  offset="0.5739" style="stop-color:#4EA8DE"/>
		<stop  offset="0.6798" style="stop-color:#5FC9DB"/>
	</linearGradient>
	<path class="st0" d="M194,33.1l0,123.2c0,8.3-9.4,13.4-16.8,9.2L56.9,78.8C34.1,65.9,5.3,81.7,5.3,107.1l0,151.9
		c0,14.2,12,25.8,26.8,25.8h0c14.9,0,26.9-11.5,26.9-25.8l0-100.4c0-8.3,9.4-13.4,16.8-9.2l120.2,86.7c22.8,12.9,51.6-2.9,51.6-28.3
		l0-174.8c0-14.2-12-25.8-26.9-25.8h0C206,7.3,194,18.8,194,33.1z"/>
	<linearGradient id="SVGID_2_" gradientUnits="userSpaceOnUse" x1="4.6012" y1="179.0386" x2="89.2008" y2="179.0386">
		<stop  offset="0.2383" style="stop-color:#644A9E"/>
		<stop  offset="0.4609" style="stop-color:#5F62AC"/>
		<stop  offset="0.512" style="stop-color:#5D6DB3"/>
		<stop  offset="0.6162" style="stop-color:#5889C7"/>
		<stop  offset="0.7112" style="stop-color:#4EA8DE"/>
		<stop  offset="0.873" style="stop-color:#5BBDDB"/>
		<stop  offset="0.9728" style="stop-color:#5FC9DB"/>
	</linearGradient>
	<path class="st1" d="M59.1,159l0,100.4c-0.5,14.6-12.6,26-27.6,25.5l0,0c-14.8,0-26.8-11.6-26.8-25.8l0-151.9
		c0-25.4,31-42.4,53.8-29.5l30.8,24.5C89.2,102.1,57.3,81.5,59.1,159z"/>
	
		<linearGradient id="SVGID_3_" gradientUnits="userSpaceOnUse" x1="213.2866" y1="-87.5299" x2="126.8736" y2="-87.0958" gradientTransform="matrix(-1 0 0 -1 378.7418 35.2855)">
		<stop  offset="7.869354e-02" style="stop-color:#644A9E"/>
		<stop  offset="0.2049" style="stop-color:#5F62AC"/>
		<stop  offset="0.2715" style="stop-color:#5D72B7"/>
		<stop  offset="0.3785" style="stop-color:#5888C6"/>
		<stop  offset="0.4759" style="stop-color:#5399D3"/>
		<stop  offset="0.5597" style="stop-color:#50A4DB"/>
		<stop  offset="0.62" style="stop-color:#4EA8DE"/>
		<stop  offset="0.8515" style="stop-color:#5FC9DB"/>
	</linearGradient>
	<path class="st2" d="M193.3,144.4l0-111.8c0.5-16.2,12.6-28.9,27.6-28.4l0,0c14.8,0,26.8,12.9,26.8,28.7l0,169.1
		c2.9,28.1-25.2,49.6-53.8,32.9l-32.4-23.8C161.5,211.2,195.1,230.7,193.3,144.4z"/>
</g>
</svg>
