<?xml version="1.0" encoding="utf-8"?>
<!-- Generator: Adobe Illustrator 24.3.0, SVG Export Plug-In . SVG Version: 6.00 Build 0)  -->
<svg version="1.1" id="Layer_1" xmlns="http://www.w3.org/2000/svg" xmlns:xlink="http://www.w3.org/1999/xlink" x="0px" y="0px"
	 viewBox="0 0 200 173.6" style="enable-background:new 0 0 200 173.6;" xml:space="preserve">
<style type="text/css">
	.st0{fill:#A052B3;}
</style>
<path class="st0" d="M137,22.1c8.9,10.1,13.6,22.4,25.9,33.7c12.4,11.2,32.3,21.6,36.3,34c4,12.5-8.2,27.4-21.6,36.8
	c-13.5,9.4-28.2,13.4-41,22.8c-12.9,9.5-23.7,24.4-34.4,24.1c-10.7-0.2-21.2-15.8-38.1-23c-16.9-7-40.2-5.7-52.8-14.9
	C-1.2,126.7-3.1,107.2,4.5,92c7.6-15.1,24.6-25.9,34.2-40.2c9.5-14.4,11.6-32.3,21-42.1c9.3-9.8,25.9-11.4,40.7-8.3
	S128.2,12.1,137,22.1z"/>
</svg>
